<?xml version="1.0" encoding="utf-8"?>
<!-- Generator: Adobe Illustrator 23.1.1, SVG Export Plug-In . SVG Version: 6.00 Build 0)  -->
<svg version="1.1" id="Calque_1" xmlns="http://www.w3.org/2000/svg" xmlns:xlink="http://www.w3.org/1999/xlink" x="0px" y="0px"
	 viewBox="0 0 841.9 595.3" style="enable-background:new 0 0 841.9 595.3;" xml:space="preserve">
<style type="text/css">
	.st0{fill:#466FB5;}
	.st1{clip-path:url(#SVGID_2_);fill:#FBBA43;}
</style>
<rect x="231" y="25.8" class="st0" width="379.9" height="543.7"/>
<g>
	<defs>
		<rect id="SVGID_1_" x="255.1" y="51.7" width="331.8" height="315.6"/>
	</defs>
	<clipPath id="SVGID_2_">
		<use xlink:href="#SVGID_1_"  style="overflow:visible;"/>
	</clipPath>
	<path class="st1" d="M581.1,194.8l-143-24.7c0-0.4,0.1-0.7,0.1-1.1l144.8-3.9l-144.8-3.5c0-0.4-0.1-0.7-0.1-1.1L580.7,135
		L437,153.1c-0.1-0.4-0.2-0.7-0.2-1.1l137.7-46l-139.9,38.8c-0.1-0.3-0.3-0.7-0.4-1l129.8-66.8l-133.1,60c-0.2-0.3-0.4-0.6-0.5-0.9
		l117.8-83.8l-122,77.6c-0.2-0.3-0.4-0.6-0.7-0.8L529,28.9l-108.5,94.9c-0.3-0.2-0.5-0.5-0.8-0.7l88-115.4l-93.9,110.7
		c-0.3-0.2-0.6-0.4-0.9-0.6L482.7-8.9l-76.2,123c-0.3-0.2-0.6-0.3-1-0.4L455.3-22l-56.7,133c-0.3-0.1-0.7-0.2-1-0.3L426.3-32
		L390.3,109c-0.3-0.1-0.7-0.1-1-0.1l7-144.8l-14.5,144.3c0,0,0,0,0,0c-0.3,0-0.6,0-0.9,0L366.5-36.3l6.7,145.3
		c-0.3,0.1-0.6,0.1-1,0.2L336.1-32L365,110.9c-0.3,0.1-0.6,0.2-0.9,0.3l-56.9-134l50,136.8c-0.3,0.1-0.6,0.3-0.8,0.4L280.5-8.9
		l69.3,127.2c-0.3,0.2-0.5,0.4-0.7,0.5L255.8,7.7l87.4,115.9c-0.2,0.2-0.4,0.4-0.7,0.6l-109.1-96l104,101.6
		c-0.2,0.2-0.4,0.5-0.5,0.7L214.5,51.7l118.2,85.1c-0.1,0.3-0.3,0.5-0.4,0.8l-132-59.6L329,144.3c-0.1,0.3-0.2,0.5-0.3,0.8
		l-140.4-39.1l138.3,46.3c-0.1,0.3-0.1,0.6-0.2,0.8l-143.9-17.8l142.8,25.3c0,0.3,0,0.6-0.1,0.8l-144.3,4l144.3,3.6
		c0,0.3,0,0.6,0.1,0.8l-142.8,25.3l144-17.8c0.1,0.3,0.1,0.5,0.2,0.8l-138,46l140.2-38.8c0.1,0.3,0.2,0.5,0.3,0.8l-128.6,66.1
		l131.9-59.4c0.1,0.2,0.3,0.5,0.4,0.7l-118,84.1l122.3-77.9c0.2,0.2,0.3,0.4,0.5,0.7L234.6,302.1l108.2-96c0.2,0.2,0.4,0.4,0.6,0.6
		l-88,115.9l93.9-111.2c0.2,0.2,0.5,0.3,0.7,0.5l-69.5,126.9l76-123.1c0.3,0.1,0.5,0.3,0.8,0.4l-50.2,136.6l57.1-133.8
		c0.3,0.1,0.6,0.2,0.9,0.3l-28.7,142.4l36-140.7c0.3,0,0.6,0.1,0.9,0.1l-7.6,144.8l15-144.2c0.3,0,0.6,0,0.9,0h0l14.1,144.9
		l-6.7-145.4c0.3,0,0.6-0.1,0.9-0.1L426,361.5l-28.5-142.1c0.3-0.1,0.6-0.2,0.9-0.3l56.5,132.8l-49.6-135.4c0.3-0.1,0.6-0.3,0.9-0.4
		l76.4,122.7l-69.9-126.4c0.3-0.2,0.6-0.4,0.8-0.5l93,110.8l-87.2-115.4c0.3-0.2,0.5-0.5,0.8-0.7l109.2,94.8l-104-100.2
		c0.2-0.3,0.4-0.5,0.6-0.8l121.9,77.5l-117.7-83.6c0.2-0.3,0.3-0.6,0.5-0.9l132.6,59.1L434,186.6c0.1-0.3,0.3-0.7,0.4-1l140.5,38.2
		l-138.2-45.3c0.1-0.3,0.2-0.7,0.2-1L581.1,194.8z"/>
</g>
</svg>
